# xmcd
#
# Track frame offsets:
#  150
#  14975
#  26080
#  39432
#  57530
#  73977
#  88062
#  109840
#  128170
#  138167
#  153175
#  168070
#  181355
#  200330
#  216685
#  249455
#
# Disc length: 3501 seconds
#
# Revision: 2
# Processed by: cddbd v1.5.1PL0 Copyright (c) Steve Scherf et al.
# Submitted via: Collectorz.com Music Collector 6.9
#
DISCID=ed0dab10
DTITLE=Various Artist - New Highway, Return To Viva Americana
DYEAR=1999
DGENRE=
TTITLE0=Dave Alvin - New Highway
TTITLE1=Slobberbone - Engine Joe
TTITLE2=Tandy - It Came Down
TTITLE3=Nadine - Closer
TTITLE4=Neko Case and the Sadies - Make Your Bed
TTITLE5=Great Western Squares - Washed My Hands in Muddy Waters
TTITLE6=Hazeldine - Whiskey in the Jar
TTITLE7=Tammy Rogers - The Train
TTITLE8=Mike Ireland - Pop-a-Top
TTITLE9=Heather Miles - True Love
TTITLE10=Billy Swan - Mystery Train
TTITLE11=Robbie Fulks - Cigarette State
TTITLE12=Neal casal - Twilight of the Floods
TTITLE13=Blue Mountain - Good Morning Midnight
TTITLE14=Jon Langford's Hillbilly Lovechild - Nashville Radio
TTITLE15=Kevin Welch - 5 Million 1 Thousand Miles
EXTD=
EXTT0=
EXTT1=
EXTT2=
EXTT3=
EXTT4=
EXTT5=
EXTT6=
EXTT7=
EXTT8=
EXTT9=
EXTT10=
EXTT11=
EXTT12=
EXTT13=
EXTT14=
EXTT15=
PLAYORDER=
